<?xml version="1.0" standalone="no"?><svg xmlns="http://www.w3.org/2000/svg" viewBox="0 0 1440 320"><path fill="#232222" fill-opacity="1" d="M0,128L20,154.7C40,181,80,235,120,213.3C160,192,200,96,240,101.3C280,107,320,213,360,224C400,235,440,149,480,128C520,107,560,149,600,154.7C640,160,680,128,720,117.3C760,107,800,117,840,112C880,107,920,85,960,64C1000,43,1040,21,1080,21.3C1120,21,1160,43,1200,69.3C1240,96,1280,128,1320,133.3C1360,139,1400,117,1420,106.7L1440,96L1440,320L1420,320C1400,320,1360,320,1320,320C1280,320,1240,320,1200,320C1160,320,1120,320,1080,320C1040,320,1000,320,960,320C920,320,880,320,840,320C800,320,760,320,720,320C680,320,640,320,600,320C560,320,520,320,480,320C440,320,400,320,360,320C320,320,280,320,240,320C200,320,160,320,120,320C80,320,40,320,20,320L0,320Z"></path></svg>