<?xml version="1.0" standalone="no"?><svg xmlns="http://www.w3.org/2000/svg" viewBox="0 0 1440 320"><path fill="#00cba9" fill-opacity="1" d="M0,32L34.3,69.3C68.6,107,137,181,206,224C274.3,267,343,277,411,256C480,235,549,181,617,170.7C685.7,160,754,192,823,218.7C891.4,245,960,267,1029,245.3C1097.1,224,1166,160,1234,149.3C1302.9,139,1371,181,1406,202.7L1440,224L1440,0L1405.7,0C1371.4,0,1303,0,1234,0C1165.7,0,1097,0,1029,0C960,0,891,0,823,0C754.3,0,686,0,617,0C548.6,0,480,0,411,0C342.9,0,274,0,206,0C137.1,0,69,0,34,0L0,0Z"></path></svg>